<svg width="16" height="16" fill="none" xmlns="http://www.w3.org/2000/svg"><path d="M13.407 2.927c.395.396.593.88.593 1.453a1.96 1.96 0 0 1-.593 1.438l-2.016 2 1.078 1.093a.51.51 0 0 1 .156.376.53.53 0 0 1-.547.547.512.512 0 0 1-.375-.157l-1.078-1.094-5.531 5.532a.654.654 0 0 1-.235.172.796.796 0 0 1-.281.046h-1.86a.734.734 0 0 1-.515-.203.733.733 0 0 1-.203-.515v-1.86c0-.104.015-.198.047-.281a.653.653 0 0 1 .172-.235L7.75 5.708 6.657 4.63a.511.511 0 0 1-.157-.375.53.53 0 0 1 .547-.546c.146 0 .271.052.375.156l1.093 1.078 2-2.016a1.959 1.959 0 0 1 1.438-.594c.574 0 1.058.198 1.454.594Zm-8.97 10.329 5.406-5.407-1.36-1.359-5.406 5.407v1.359h1.36Z" fill="#000"/></svg>